<svg width="24" height="24" viewBox="0 0 24 24" fill="none" xmlns="http://www.w3.org/2000/svg">
<path d="M2 22L6.375 17.625M15.75 2L11.375 6.375M22 8.25L17.625 12.625M9.23125 4.5L19.5 14.7688L16.9325 17.3362C16.2632 18.0324 15.4617 18.588 14.575 18.9707C13.6884 19.3533 12.7343 19.5553 11.7686 19.5648C10.803 19.5742 9.8451 19.391 8.95109 19.0258C8.05709 18.6606 7.24489 18.1208 6.56203 17.438C5.87917 16.7551 5.33935 15.9429 4.97417 15.0489C4.60899 14.1549 4.42577 13.197 4.43524 12.2314C4.44472 11.2657 4.64669 10.3116 5.02933 9.42496C5.41198 8.53829 5.96762 7.73684 6.66375 7.0675L9.23125 4.5Z" stroke="inherit" stroke-width="1.5" stroke-linecap="round" stroke-linejoin="round"/>
</svg>
